<svg xmlns="http://www.w3.org/2000/svg" viewBox="0 0 16 16"><path fill="#455a64" d="M15 7h1v1h-1zM13 7h1v1h-1zM11 7h1v1h-1zM9 7h1v1H9z"/><path fill="#d32f2f" d="M12.45 10.1l-8-4.05A2.48 2.48 0 005 4.5a2.5 2.5 0 10-3.63 2.23l10.18 5.16A.98.98 0 0012 12a1 1 0 00.45-1.9z"/><path fill="#fafafa" d="M2.5 3.5a1 1 0 011 1 1.04 1.04 0 01-1.45.9 1 1 0 01.45-1.9z"/><path fill="#f44336" d="M12.9 3.55a1 1 0 00-1.35-.44L1.37 8.27A2.5 2.5 0 105 10.5a2.48 2.48 0 00-.55-1.55l8-4.06a1 1 0 00.44-1.34z"/><path fill="#fafafa" d="M2.5 11.5a1 1 0 111-1 1 1 0 01-1 1z"/></svg>